<svg xmlns="http://www.w3.org/2000/svg" xmlns:xlink="http://www.w3.org/1999/xlink" viewBox="0 0 138.7 167.82"><defs><style>.cls-1{fill:none;}.cls-2{fill:#934de8;}.cls-3{clip-path:url(#clip-path);}.cls-4{fill:#f09d7e;}.cls-5{fill:#f07ea4;}.cls-6{fill:#e39a7f;}.cls-7{fill:#ffb59c;}.cls-8{fill:#fcfcfc;stroke:#e87464;stroke-linecap:round;stroke-linejoin:round;stroke-width:2.97px;}.cls-9{fill:#333;}.cls-10{fill:#362300;}.cls-11{fill:#ffc3ad;}</style><clipPath id="clip-path"><path class="cls-1" d="M69.35,138.7h0A69.56,69.56,0,0,0,138.7,69.35h0A69.56,69.56,0,0,0,69.35,0h0A69.56,69.56,0,0,0,0,69.35H0A69.56,69.56,0,0,0,69.35,138.7Z"/></clipPath></defs><g id="Layer_2" data-name="Layer 2"><g id="Layer_3" data-name="Layer 3"><g id="_1" data-name="1"><path class="cls-2" d="M69.35,138.7h0A69.56,69.56,0,0,0,138.7,69.35h0A69.56,69.56,0,0,0,69.35,0h0A69.56,69.56,0,0,0,0,69.35H0A69.56,69.56,0,0,0,69.35,138.7Z"/><g class="cls-3"><polygon class="cls-4" points="81.73 147.94 61.78 148.27 61.78 98.87 81.73 98.54 81.73 147.94"/><rect class="cls-5" x="15.45" y="123.9" width="104.03" height="43.92"/></g><circle class="cls-6" cx="35.87" cy="69.44" r="10.69"/><circle class="cls-6" cx="102.83" cy="69.44" r="10.69"/><path class="cls-7" d="M107.83,96.13C105.91,117.7,78,115.56,76,115.57H63c-2.87.12-29.72.83-31.79-19.44-1.13-11.09,3.34-18,3.34-18v-24c0-.78,0-1.54.08-2.3s.14-1.71.25-2.55.29-1.84.49-2.74.36-1.5.58-2.23.45-1.49.72-2.21.5-1.35.8-2,.63-1.39,1-2.06.65-1.22,1-1.82.89-1.4,1.35-2.09S41.59,33,42,32.5c.59-.76,1.23-1.51,1.88-2.22l.86-.9.53-.52c.51-.5,1-1,1.59-1.45s1-.85,1.55-1.25a34.89,34.89,0,0,1,21-7.15h.28a35.1,35.1,0,0,1,34.83,35.1v24S108.82,85,107.83,96.13Z"/><path class="cls-8" d="M84.36,91.51c-3.14,6.19-9,11.3-15.71,11.3-7.05,0-13.15-4.58-16.16-11.3Z"/><path class="cls-9" d="M45.1,82.58c10.57,6.18,14.49,0,19.94,0a4.81,4.81,0,0,1,0,9.61C62.38,92.19,46.43,91.84,45.1,82.58Z"/><path class="cls-9" d="M91.74,82.58c-10.57,6.18-14.48,0-19.93,0a4.81,4.81,0,1,0,0,9.61C74.46,92.19,90.41,91.84,91.74,82.58Z"/><path d="M59,66.73a3.75,3.75,0,0,1-3.75,3.74,3.66,3.66,0,0,1-1.55-.34,3.72,3.72,0,0,1-2-2.19,3.6,3.6,0,0,1-.21-1.22A3.74,3.74,0,0,1,55.26,63a3.66,3.66,0,0,1,1.41.28,3.76,3.76,0,0,1,2.24,2.61A4.21,4.21,0,0,1,59,66.73Z"/><path d="M84.18,64l-6.09,2a3.66,3.66,0,0,0,.1,1.88,3.7,3.7,0,1,0,7-2.29,3.61,3.61,0,0,0-.35-.77A3.84,3.84,0,0,0,84.18,64Z"/><rect class="cls-10" x="75.74" y="56.69" width="13.75" height="4.33" rx="2.17" transform="translate(-13.56 26.61) rotate(-16.93)"/><rect class="cls-10" x="47.33" y="52.73" width="13.75" height="4.33" rx="2.17" transform="translate(-10.79 13.33) rotate(-12.76)"/><rect class="cls-11" x="64.7" y="68.49" width="7.45" height="11.52" rx="2.67"/><path class="cls-9" d="M100.13,27.94c-8.72-12.1-23.91-12.77-30.3-12.69-6.31-.34-22.26.59-31,12.69-11,15.21-3.95,31.61-3.95,31.61l4.63-8.29s-4-8,4.11-17.15,25.84-.91,25.84-.91v0S87.2,25,95.32,34.11s4.8,17.34,4.8,17.34l4.74,8.39S111.11,43.15,100.13,27.94Z"/></g></g></g></svg>