<svg xmlns="http://www.w3.org/2000/svg" xmlns:xlink="http://www.w3.org/1999/xlink" viewBox="0 0 138.7 165.84"><defs><style>.cls-1,.cls-9{fill:none;}.cls-2{fill:#ff8989;}.cls-3{clip-path:url(#clip-path);}.cls-4{fill:#7a4100;}.cls-5{fill:#f09d7e;}.cls-6{fill:#fcdb62;}.cls-7{fill:#e39a7f;}.cls-8{fill:#fcb49a;}.cls-9{stroke:#e87464;stroke-linecap:round;stroke-linejoin:round;stroke-width:1.98px;}.cls-10{fill:#ffc3ad;}</style><clipPath id="clip-path"><path class="cls-1" d="M69.35,138.7h0A69.56,69.56,0,0,0,138.7,69.35h0A69.56,69.56,0,0,0,69.35,0h0A69.56,69.56,0,0,0,0,69.35H0A69.56,69.56,0,0,0,69.35,138.7Z"/></clipPath></defs><g id="Layer_2" data-name="Layer 2"><g id="Layer_3" data-name="Layer 3"><g id="_1" data-name="1"><path class="cls-2" d="M69.35,138.7h0A69.56,69.56,0,0,0,138.7,69.35h0A69.56,69.56,0,0,0,69.35,0h0A69.56,69.56,0,0,0,0,69.35H0A69.56,69.56,0,0,0,69.35,138.7Z"/><g class="cls-3"><rect class="cls-4" x="35.74" y="68.27" width="70.37" height="44.87" rx="11.67"/><rect class="cls-5" x="59.9" y="98.7" width="23.88" height="49.4"/><rect class="cls-6" x="19.22" y="121.92" width="104.03" height="43.92"/></g><circle class="cls-7" cx="39.52" cy="66.76" r="10.78"/><circle class="cls-7" cx="104.13" cy="66.76" r="10.78"/><path class="cls-8" d="M106.14,57V78.67c-.24,19.75-35.1,35.1-35.1,35.1s-35.1-15.71-35.1-35.1V57a35.1,35.1,0,1,1,70.2,0Z"/><path class="cls-4" d="M106,59.13c0-.3,0-.62,0-.94C106,44.78,96.81,30,85.45,30c-5.63,0-8.88,3-14.45,3s-8.82-3-14.44-3c-11,0-20.26,14.57-20.79,27.43-.08-1,0-3.32,0-4.37A35.13,35.13,0,0,1,71.11,17.48c19.47,0,35.25,16.29,35.25,36.39A36.4,36.4,0,0,1,106,59.13Z"/><path class="cls-9" d="M64.69,88.3H80.06a8.9,8.9,0,0,0,9-6.92"/><rect class="cls-10" x="66.64" y="65.8" width="7.51" height="11.61" rx="2.7"/><rect class="cls-4" x="46.61" y="48.47" width="15.38" height="2.35" rx="1.15" transform="matrix(0.97, -0.25, 0.25, 0.97, -10.79, 15.34)"/><rect class="cls-4" x="79.3" y="55.41" width="15.38" height="2.35" rx="1.15" transform="translate(176.78 108.6) rotate(177.04)"/><path d="M59.69,63.87a4.2,4.2,0,0,1-4.2,4.19,4.06,4.06,0,0,1-1.74-.38,4.21,4.21,0,0,1-2.2-2.46,3.89,3.89,0,0,1-.23-1.36,4.18,4.18,0,0,1,4.18-4.2,4.12,4.12,0,0,1,1.58.31,4.2,4.2,0,0,1,2.51,2.92A4.59,4.59,0,0,1,59.69,63.87Z"/><path d="M54.29,60.73s-3.14.74-3.76-1.86c0,0-.74,2.61,1.55,3.33C55,63.1,54.29,60.73,54.29,60.73Z"/><path d="M53.4,62.05s-3.13.74-3.75-1.86c0,0-.75,2.61,1.55,3.33C54.08,64.42,53.4,62.05,53.4,62.05Z"/><path d="M87.72,61.83s3.19.41,3.53-2.25c0,0,1,2.52-1.19,3.47C87.28,64.25,87.72,61.83,87.72,61.83Z"/><path d="M88.74,63.05s3.19.41,3.53-2.24c0,0,1,2.51-1.19,3.46C88.3,65.47,88.74,63.05,88.74,63.05Z"/><path d="M89.05,61.78H81.88a4.05,4.05,0,0,0-.56,2,4.15,4.15,0,1,0,8.3,0,4.74,4.74,0,0,0-.11-.94A4.13,4.13,0,0,0,89.05,61.78Z"/></g></g></g></svg>