<svg xmlns="http://www.w3.org/2000/svg" xmlns:xlink="http://www.w3.org/1999/xlink" viewBox="0 0 138.7 170.86"><defs><style>.cls-1{fill:none;}.cls-2{fill:#36a9de;}.cls-3{clip-path:url(#clip-path);}.cls-4{fill:#f09d7e;}.cls-5{fill:#f07e7e;}.cls-6{fill:#e39a7f;}.cls-7{fill:#ffb59c;}.cls-8{fill:#7a4100;}.cls-9{fill:#ffc3ad;}.cls-10{fill:#fcfcfc;stroke:#e87464;stroke-linecap:round;stroke-linejoin:round;stroke-width:3.67px;}</style><clipPath id="clip-path"><path class="cls-1" d="M69.35,138.7h0A69.56,69.56,0,0,0,138.7,69.35h0A69.56,69.56,0,0,0,69.35,0h0A69.56,69.56,0,0,0,0,69.35H0A69.56,69.56,0,0,0,69.35,138.7Z"/></clipPath></defs><g id="Layer_2" data-name="Layer 2"><g id="Layer_3" data-name="Layer 3"><g id="_1" data-name="1"><path class="cls-2" d="M69.35,138.7h0A69.56,69.56,0,0,0,138.7,69.35h0A69.56,69.56,0,0,0,69.35,0h0A69.56,69.56,0,0,0,0,69.35H0A69.56,69.56,0,0,0,69.35,138.7Z"/><g class="cls-3"><rect class="cls-4" x="58.23" y="98.7" width="22.74" height="49.4"/><rect class="cls-5" x="18.72" y="126.93" width="104.03" height="43.92"/></g><circle class="cls-6" cx="26.28" cy="69.67" r="11.98"/><circle class="cls-6" cx="112.43" cy="69.67" r="11.98"/><circle class="cls-7" cx="69.53" cy="72.61" r="45.61"/><path d="M57.75,66.63a4.2,4.2,0,0,1-4.2,4.19,4.06,4.06,0,0,1-1.74-.38A4.15,4.15,0,0,1,49.61,68a3.89,3.89,0,0,1-.24-1.36,4.19,4.19,0,0,1,4.19-4.2,4.12,4.12,0,0,1,1.58.31,4.2,4.2,0,0,1,2.51,2.92A5.34,5.34,0,0,1,57.75,66.63Z"/><path d="M87.11,64.54H79.93a4.14,4.14,0,1,0,7.63,1.1A3.8,3.8,0,0,0,87.11,64.54Z"/><rect class="cls-8" x="77.62" y="56.49" width="15.41" height="4.86" rx="2.43"/><rect class="cls-8" x="44.67" y="50.94" width="15.41" height="4.86" rx="2.43" transform="translate(-10.49 12.89) rotate(-12.76)"/><rect class="cls-9" x="64.14" y="68.6" width="8.35" height="12.91" rx="3"/><path class="cls-8" d="M114.89,72.16c0-.38,0-.78,0-1.17,0-16.64-11.92-35-26.64-35a25.11,25.11,0,0,0-18.71,8.68A25.07,25.07,0,0,0,50.87,36C36.59,36,24.64,54,24,70c-.12-1.28.06-4.12.06-5.42,0-24.94,20.5-44.09,45.7-44.09s45.63,20.22,45.63,45.16A45.42,45.42,0,0,1,114.89,72.16Z"/><path class="cls-10" d="M89,92.48c-3.87,7.64-11.11,14-19.38,14-8.69,0-16.22-5.66-19.93-14Z"/></g></g></g></svg>