<svg xmlns="http://www.w3.org/2000/svg" xmlns:xlink="http://www.w3.org/1999/xlink" viewBox="0 0 138.7 167.82"><defs><style>.cls-1{fill:none;}.cls-2{fill:#e84d66;}.cls-3{clip-path:url(#clip-path);}.cls-4{fill:#f09d7e;}.cls-5{fill:#98d2ed;}.cls-6{fill:#e39a7f;}.cls-7{fill:#ffb59c;}.cls-8{fill:#362300;}.cls-9{fill:#ffc3ad;}.cls-10{fill:#fcfcfc;stroke:#e87464;stroke-linecap:round;stroke-linejoin:round;stroke-width:3.27px;}</style><clipPath id="clip-path"><path class="cls-1" d="M69.35,138.7h0A69.56,69.56,0,0,0,138.7,69.35h0A69.56,69.56,0,0,0,69.35,0h0A69.56,69.56,0,0,0,0,69.35H0A69.56,69.56,0,0,0,69.35,138.7Z"/></clipPath></defs><g id="Layer_2" data-name="Layer 2"><g id="Layer_3" data-name="Layer 3"><g id="_1" data-name="1"><path class="cls-2" d="M69.35,138.7h0A69.56,69.56,0,0,0,138.7,69.35h0A69.56,69.56,0,0,0,69.35,0h0A69.56,69.56,0,0,0,0,69.35H0A69.56,69.56,0,0,0,69.35,138.7Z"/><g class="cls-3"><polygon class="cls-4" points="81.73 147.94 61.78 148.27 61.78 98.87 81.73 98.54 81.73 147.94"/><rect class="cls-5" x="15.45" y="123.9" width="104.03" height="43.92"/></g><circle class="cls-6" cx="35.87" cy="69.44" r="10.69"/><circle class="cls-6" cx="102.83" cy="69.44" r="10.69"/><path class="cls-7" d="M107.83,96.13C105.91,117.7,78,115.56,76,115.57H63c-2.87.12-29.72.83-31.79-19.44-1.13-11.09,3.34-18,3.34-18v-24c0-.78,0-1.54.08-2.3s.14-1.71.25-2.55.29-1.84.49-2.74.36-1.5.58-2.23.45-1.49.72-2.21.5-1.35.8-2,.63-1.39,1-2.06.65-1.22,1-1.82.89-1.4,1.35-2.09S41.59,33,42,32.5c.59-.76,1.23-1.51,1.88-2.22l.86-.9.53-.52c.51-.5,1-1,1.59-1.45s1-.85,1.55-1.25a34.89,34.89,0,0,1,21-7.15h.28a35.1,35.1,0,0,1,34.83,35.1v24S108.82,85,107.83,96.13Z"/><path class="cls-8" d="M104.64,63.23c0-16.47-1.1-35.75-19.78-42.18C82.68,14,76.57,8,69.36,8c-.16,3.75-.15,4.48-.12,4.6-.33,0-12.53-.61-15.56,9.14-17.33,6.69-19.55,24.8-19.55,40.68,0,1.05-.13,3.34-.05,4.37.52-12.86,7.6-30.21,20.78-30.21h1.59a16.33,16.33,0,0,0,26.08-.33h1.21c14.4,0,20.57,18,20.57,31.36,0,.32,0,.63,0,.94A39.6,39.6,0,0,0,104.64,63.23Z"/><path d="M59,66.73a3.75,3.75,0,0,1-3.75,3.74,3.66,3.66,0,0,1-1.55-.34,3.72,3.72,0,0,1-2-2.19,3.6,3.6,0,0,1-.21-1.22A3.74,3.74,0,0,1,55.26,63a3.66,3.66,0,0,1,1.41.28,3.76,3.76,0,0,1,2.24,2.61A4.21,4.21,0,0,1,59,66.73Z"/><path d="M84.18,64l-6.09,2a3.66,3.66,0,0,0,.1,1.88,3.7,3.7,0,1,0,7-2.29,3.61,3.61,0,0,0-.35-.77A3.84,3.84,0,0,0,84.18,64Z"/><rect class="cls-8" x="75.74" y="56.69" width="13.75" height="4.33" rx="2.17" transform="translate(-13.56 26.61) rotate(-16.93)"/><rect class="cls-8" x="47.33" y="52.73" width="13.75" height="4.33" rx="2.17" transform="translate(-10.79 13.33) rotate(-12.76)"/><rect class="cls-9" x="64.7" y="68.49" width="7.45" height="11.52" rx="2.67"/><path class="cls-10" d="M68.78,96.17H84.05"/></g></g></g></svg>