<svg xmlns="http://www.w3.org/2000/svg" xmlns:xlink="http://www.w3.org/1999/xlink" viewBox="0 0 138.7 167.82"><defs><style>.cls-1,.cls-10{fill:none;}.cls-2{fill:#c69bfa;}.cls-3{clip-path:url(#clip-path);}.cls-4{fill:#f09d7e;}.cls-5{fill:#a27ef0;}.cls-6{fill:#e39a7f;}.cls-7{fill:#ffb59c;}.cls-8{fill:#602a13;}.cls-9{fill:#ffc3ad;}.cls-10{stroke:#e87464;stroke-linecap:round;stroke-linejoin:round;stroke-width:3.27px;}</style><clipPath id="clip-path"><path class="cls-1" d="M69.35,138.7h0A69.56,69.56,0,0,0,138.7,69.35h0A69.56,69.56,0,0,0,69.35,0h0A69.56,69.56,0,0,0,0,69.35H0A69.56,69.56,0,0,0,69.35,138.7Z"/></clipPath></defs><g id="Layer_2" data-name="Layer 2"><g id="Layer_3" data-name="Layer 3"><g id="_1" data-name="1"><path class="cls-2" d="M69.35,138.7h0A69.56,69.56,0,0,0,138.7,69.35h0A69.56,69.56,0,0,0,69.35,0h0A69.56,69.56,0,0,0,0,69.35H0A69.56,69.56,0,0,0,69.35,138.7Z"/><g class="cls-3"><rect class="cls-4" x="56.22" y="98.7" width="25.32" height="49.4"/><rect class="cls-5" x="15.44" y="123.9" width="104.03" height="43.92"/></g><circle class="cls-6" cx="34.88" cy="69.44" r="10.69"/><circle class="cls-6" cx="102.83" cy="69.44" r="10.69"/><path class="cls-7" d="M104,60.35,103.94,87c-.31,19.75-24.13,27.14-35.23,27s-35-7.91-35-27.3l.08-26.62a35.11,35.11,0,0,1,70.21.26Z"/><path d="M59,66.73a3.75,3.75,0,0,1-3.75,3.74,3.66,3.66,0,0,1-1.55-.34,3.72,3.72,0,0,1-2-2.19,3.6,3.6,0,0,1-.21-1.22A3.74,3.74,0,0,1,55.26,63a3.66,3.66,0,0,1,1.41.28,3.76,3.76,0,0,1,2.24,2.61A4.21,4.21,0,0,1,59,66.73Z"/><path d="M85.73,66.73a3.73,3.73,0,0,1-7.26,1.21,3.6,3.6,0,0,1-.21-1.22A3.75,3.75,0,0,1,82,63a3.61,3.61,0,0,1,1.4.28,3.73,3.73,0,0,1,2.24,2.61A4.21,4.21,0,0,1,85.73,66.73Z"/><rect class="cls-8" x="81.43" y="48.03" width="4.34" height="13.75" rx="2.17" transform="translate(10.79 123.47) rotate(-76.58)"/><rect class="cls-8" x="47.33" y="52.73" width="13.75" height="4.33" rx="2.17" transform="translate(-10.79 13.33) rotate(-12.76)"/><rect class="cls-9" x="64.7" y="68.49" width="7.45" height="11.52" rx="2.67"/><path class="cls-10" d="M79.32,90.71a17,17,0,0,1-10.59,4,18.31,18.31,0,0,1-11.8-4.41"/><path class="cls-8" d="M68.38,13.8H68.2a9,9,0,0,0-4,1.29,4.9,4.9,0,0,0-8.52,3.26,7.1,7.1,0,0,0-1.13.48,4.9,4.9,0,0,0-9.23,2.3,3.87,3.87,0,0,0,0,.49,6.25,6.25,0,0,0-4,2.81,4.77,4.77,0,0,0-1.47-.25A4.92,4.92,0,0,0,35,29.11a4.83,4.83,0,0,0,.17,1.2,6.3,6.3,0,0,0-3.64,4.83A4.89,4.89,0,0,0,28.4,43.4a6.28,6.28,0,0,0-1.24,3.76c0,.07,0,.14,0,.21a4.88,4.88,0,0,0-1.87,8.36,6.3,6.3,0,0,0,4.26,8.74,3.4,3.4,0,0,0,2.12,3.09,2,2,0,1,0,3.8.84A2,2,0,0,0,35,67.11a3.38,3.38,0,0,0,1.37-2.7,3.35,3.35,0,0,0-.59-1.91,6.28,6.28,0,0,0,.44-7.75A4.85,4.85,0,0,0,37,52.38a6.3,6.3,0,0,0,1.66-8.77,4.7,4.7,0,0,0,.7-1.46,6.3,6.3,0,0,0,4.71-6.1,5.88,5.88,0,0,0,0-.6A4.83,4.83,0,0,0,45.52,34a6.32,6.32,0,0,0,7.35-4.63,6.74,6.74,0,0,0,10.07-.12,8.81,8.81,0,0,0,5.78,2.32V13.76A1.48,1.48,0,0,1,68.38,13.8Z"/><path class="cls-8" d="M114.45,52.08a4.9,4.9,0,0,0-3.53-4.69c0-.07,0-.14,0-.21a6.22,6.22,0,0,0-1.25-3.76A4.85,4.85,0,0,0,111.05,40a4.9,4.9,0,0,0-4.5-4.88,6.28,6.28,0,0,0-3.64-4.83,4.83,4.83,0,0,0,.17-1.2,4.92,4.92,0,0,0-4.92-4.92,4.77,4.77,0,0,0-1.47.25,6.3,6.3,0,0,0-4-2.81,3.87,3.87,0,0,0,0-.49,4.9,4.9,0,0,0-9.23-2.3,7.1,7.1,0,0,0-1.13-.48,4.9,4.9,0,0,0-8.52-3.26,9,9,0,0,0-4-1.29h-.18c-.18,0-.36,0-.55,0h-.23l-.22,0V31.58h.45a8.92,8.92,0,0,0,6-2.33,6.76,6.76,0,0,0,10.07.12A6.31,6.31,0,0,0,92.58,34a5,5,0,0,0,1.48,1.48q0,.3,0,.6a6.31,6.31,0,0,0,4.71,6.1,4.48,4.48,0,0,0,.7,1.46,6.31,6.31,0,0,0,1.65,8.77,4.86,4.86,0,0,0,.8,2.37,6.28,6.28,0,0,0,.44,7.75,3.37,3.37,0,0,0-.59,1.91,3.32,3.32,0,0,0,1.37,2.7,2,2,0,0,0-.48,1.29,2,2,0,1,0,4,0,2,2,0,0,0-.19-.84,3.4,3.4,0,0,0,2.12-3.09,6.3,6.3,0,0,0,4.84-6.13,6.19,6.19,0,0,0-.58-2.61A5,5,0,0,0,114.45,52.08Z"/></g></g></g></svg>