<svg xmlns="http://www.w3.org/2000/svg" xmlns:xlink="http://www.w3.org/1999/xlink" viewBox="0 0 138.7 167.82"><defs><style>.cls-1{fill:none;}.cls-2{fill:#ff8989;}.cls-3{clip-path:url(#clip-path);}.cls-4{fill:#802e13;}.cls-5{fill:#f09d7e;}.cls-6{fill:#95a7f0;}.cls-7{fill:#e39a7f;}.cls-8{fill:#ffb59c;}.cls-9{fill:#332a1a;}.cls-10{fill:#ffc3ad;}.cls-11{fill:#fcfcfc;stroke:#e87464;stroke-linecap:round;stroke-linejoin:round;stroke-width:3.27px;}</style><clipPath id="clip-path"><path class="cls-1" d="M69.35,138.7h0A69.56,69.56,0,0,0,138.7,69.35h0A69.56,69.56,0,0,0,69.35,0h0A69.56,69.56,0,0,0,0,69.35H0A69.56,69.56,0,0,0,69.35,138.7Z"/></clipPath></defs><g id="Layer_2" data-name="Layer 2"><g id="Layer_3" data-name="Layer 3"><g id="_1" data-name="1"><path class="cls-2" d="M69.35,138.7h0A69.56,69.56,0,0,0,138.7,69.35h0A69.56,69.56,0,0,0,69.35,0h0A69.56,69.56,0,0,0,0,69.35H0A69.56,69.56,0,0,0,69.35,138.7Z"/><g class="cls-3"><rect class="cls-4" x="48.15" y="36.24" width="61.83" height="101.14"/><polygon class="cls-5" points="81.73 147.94 61.78 148.27 61.78 98.87 81.73 98.54 81.73 147.94"/><rect class="cls-6" x="15.45" y="123.9" width="104.03" height="43.92"/></g><circle class="cls-7" cx="35.87" cy="69.44" r="10.69"/><circle class="cls-7" cx="102.83" cy="69.44" r="10.69"/><path class="cls-8" d="M107.83,96.13C105.91,117.7,78,115.56,76,115.57H63c-2.87.12-29.72.83-31.79-19.44-1.13-11.09,3.34-18,3.34-18v-24c0-.78,0-1.54.08-2.3s.14-1.71.25-2.55.29-1.84.49-2.74.36-1.5.58-2.23.45-1.49.72-2.21.5-1.35.8-2,.63-1.39,1-2.06.65-1.22,1-1.82.89-1.4,1.35-2.09S41.59,33,42,32.5c.59-.76,1.23-1.51,1.88-2.22l.86-.9.53-.52c.51-.5,1-1,1.59-1.45s1-.85,1.55-1.25a34.89,34.89,0,0,1,21-7.15h.28a35.1,35.1,0,0,1,34.83,35.1v24S108.82,85,107.83,96.13Z"/><path class="cls-4" d="M45.36,35.34c5.12-4,22.81-3.46,29.26-3.73,2-.08,4.81-.09,5.71-2.32.54-1.3.24-3,.22-4.36s0-2.75,0-4.12A35,35,0,0,0,69.67,19h-.28a35,35,0,0,0-21,7.15c-.53.4-1,.82-1.55,1.25s-1.08.95-1.59,1.45l-.53.52-.86.9C43.24,31,42.6,31.74,42,32.5c-.42.52-.81,1.07-1.2,1.61s-.92,1.38-1.35,2.09-.68,1.2-1,1.82-.68,1.36-1,2.06-.56,1.33-.8,2-.52,1.47-.72,2.21-.41,1.48-.58,2.23-.36,1.81-.49,2.74-.2,1.69-.25,2.55-.08,1.52-.08,2.3v1.48C35.07,54,36.69,42.08,45.36,35.34Z"/><path class="cls-4" d="M93.82,35.34c-5.12-4-22.81-3.46-29.26-3.73-2-.08-4.81-.09-5.71-2.32-.53-1.3-.24-3-.22-4.36s0-2.75,0-4.12A35,35,0,0,1,69.51,19h.28a34.93,34.93,0,0,1,21,7.15c.53.4,1,.82,1.55,1.25s1.08.95,1.59,1.45l.53.52.86.9c.65.71,1.29,1.46,1.88,2.22.42.52.82,1.07,1.2,1.61s.92,1.38,1.35,2.09.68,1.2,1,1.82.68,1.36,1,2.06a21.37,21.37,0,0,1,.8,2c.27.72.52,1.47.73,2.21s.4,1.48.57,2.23.37,1.81.5,2.74.19,1.69.24,2.55.08,1.52.08,2.3v1.48C104.12,54,102.49,42.08,93.82,35.34Z"/><path d="M59.4,67.27a4.19,4.19,0,0,1-4.19,4.19,4.12,4.12,0,0,1-3.94-2.84A3.89,3.89,0,0,1,51,67.26a4.19,4.19,0,0,1,8.27-1A4.59,4.59,0,0,1,59.4,67.27Z"/><path d="M54,64.13s-3.13.74-3.75-1.86c0,0-.74,2.61,1.55,3.32C54.68,66.5,54,64.13,54,64.13Z"/><path d="M53.11,65.45s-3.13.74-3.75-1.86c0,0-.74,2.61,1.55,3.33C53.8,67.82,53.11,65.45,53.11,65.45Z"/><path d="M78,67.27a4.19,4.19,0,0,0,4.2,4.19,4.06,4.06,0,0,0,1.74-.38,4.21,4.21,0,0,0,2.2-2.46,4.13,4.13,0,0,0,.23-1.36,4.19,4.19,0,0,0-4.19-4.2,4.07,4.07,0,0,0-1.57.31,4.18,4.18,0,0,0-2.51,2.92A4.59,4.59,0,0,0,78,67.27Z"/><path d="M83.38,64.13s3.13.74,3.75-1.86c0,0,.75,2.61-1.55,3.32C82.7,66.5,83.38,64.13,83.38,64.13Z"/><path d="M84.27,65.45s3.13.74,3.75-1.86c0,0,.74,2.61-1.55,3.33C83.59,67.82,84.27,65.45,84.27,65.45Z"/><rect class="cls-9" x="46.19" y="55.17" width="15.38" height="2.35" rx="1.15" transform="translate(13.77 -10.51) rotate(12.76)"/><rect class="cls-9" x="75.93" y="53.16" width="15.38" height="2.35" rx="1.15" transform="translate(146.67 131.61) rotate(-162.23)"/><rect class="cls-10" x="64.7" y="68.49" width="7.45" height="11.52" rx="2.67"/><path class="cls-11" d="M68.78,96.17H84.05"/><circle class="cls-4" cx="43.51" cy="30.55" r="14.31"/><circle class="cls-4" cx="72.11" cy="26.84" r="20.09"/><circle class="cls-4" cx="98.37" cy="30.55" r="14.31"/></g></g></g></svg>