<svg xmlns="http://www.w3.org/2000/svg" xmlns:xlink="http://www.w3.org/1999/xlink" viewBox="0 0 138.7 167.82"><defs><style>.cls-1,.cls-11{fill:none;}.cls-2{fill:#ffd359;}.cls-3{clip-path:url(#clip-path);}.cls-4{fill:#2b2b2b;}.cls-5{fill:#f09d7e;}.cls-6{fill:#95a7f0;}.cls-7{fill:#e39a7f;}.cls-8{fill:#fcb49a;}.cls-9{fill:#9c3b13;}.cls-10{fill:#ffc3ad;}.cls-11{stroke:#e87464;stroke-linecap:round;stroke-linejoin:round;stroke-width:3.27px;}.cls-12{fill:#575757;}</style><clipPath id="clip-path"><path class="cls-1" d="M69.35,138.7h0A69.56,69.56,0,0,0,138.7,69.35h0A69.56,69.56,0,0,0,69.35,0h0A69.56,69.56,0,0,0,0,69.35H0A69.56,69.56,0,0,0,69.35,138.7Z"/></clipPath></defs><g id="Layer_2" data-name="Layer 2"><g id="Layer_3" data-name="Layer 3"><g id="_1" data-name="1"><path class="cls-2" d="M69.35,138.7h0A69.56,69.56,0,0,0,138.7,69.35h0A69.56,69.56,0,0,0,69.35,0h0A69.56,69.56,0,0,0,0,69.35H0A69.56,69.56,0,0,0,69.35,138.7Z"/><g class="cls-3"><path class="cls-4" d="M32.11,45.49h73.56a0,0,0,0,1,0,0v83.26A20.27,20.27,0,0,1,85.4,149h-33a20.27,20.27,0,0,1-20.27-20.27V45.49a0,0,0,0,1,0,0Z"/><rect class="cls-5" x="56.22" y="98.7" width="25.32" height="49.4"/><rect class="cls-6" x="15.44" y="123.9" width="104.03" height="43.92"/></g><circle class="cls-7" cx="35.87" cy="71.42" r="10.69"/><circle class="cls-7" cx="101.84" cy="71.42" r="10.69"/><path class="cls-8" d="M104.24,61.18V82.84c-.24,19.76-35.11,35.1-35.11,35.1S34,102.23,34,82.84V61.18A35.1,35.1,0,0,1,84.71,29.72,34.61,34.61,0,0,1,94,36.36,35,35,0,0,1,104.24,61.18Z"/><path class="cls-4" d="M105.66,52.71V47.64a36.79,36.79,0,1,0-73.57,0v5.07s4.15-15.85,36.79-15.85C102.54,36.86,105.66,52.71,105.66,52.71Z"/><path d="M59.38,68.91a4.2,4.2,0,0,1-4.19,4.2,4.16,4.16,0,0,1-3.94-2.85A3.89,3.89,0,0,1,51,68.9a4.19,4.19,0,0,1,8.27-1A4.59,4.59,0,0,1,59.38,68.91Z"/><path d="M54,65.77s-3.13.74-3.75-1.86c0,0-.74,2.61,1.55,3.33C54.66,68.14,54,65.77,54,65.77Z"/><path d="M53.09,67.09s-3.13.74-3.75-1.86c0,0-.74,2.61,1.55,3.33C53.78,69.46,53.09,67.09,53.09,67.09Z"/><path d="M78,68.91a4.2,4.2,0,0,0,4.2,4.2,4.07,4.07,0,0,0,1.74-.39,4.21,4.21,0,0,0,2.2-2.46,4.13,4.13,0,0,0,.23-1.36,4.2,4.2,0,0,0-4.19-4.2,4.11,4.11,0,0,0-1.57.31,4.18,4.18,0,0,0-2.51,2.92A4.59,4.59,0,0,0,78,68.91Z"/><path d="M83.36,65.77s3.13.74,3.75-1.86c0,0,.75,2.61-1.55,3.33C82.68,68.14,83.36,65.77,83.36,65.77Z"/><path d="M84.25,67.09s3.13.74,3.75-1.86c0,0,.74,2.61-1.55,3.33C83.57,69.46,84.25,67.09,84.25,67.09Z"/><rect class="cls-9" x="45.21" y="54.81" width="15.38" height="2.35" rx="1.15" transform="translate(-12.43 15.19) rotate(-14.64)"/><rect class="cls-9" x="76.9" y="54.8" width="15.38" height="2.35" rx="1.15" transform="translate(148.06 135.11) rotate(-162.23)"/><rect class="cls-10" x="64.7" y="70.47" width="7.45" height="11.52" rx="2.67"/><path class="cls-11" d="M79.32,92.69a17,17,0,0,1-10.59,4,18.31,18.31,0,0,1-11.8-4.41"/><rect class="cls-12" x="36.75" y="24.94" width="64.52" height="21.01" rx="10.51"/></g></g></g></svg>