<svg xmlns="http://www.w3.org/2000/svg" xmlns:xlink="http://www.w3.org/1999/xlink" viewBox="0 0 138.7 170.86"><defs><style>.cls-1,.cls-10{fill:none;}.cls-2{fill:#79c75a;}.cls-3{clip-path:url(#clip-path);}.cls-4{fill:#f09d7e;}.cls-5{fill:#fcdb62;}.cls-6{fill:#e39a7f;}.cls-7{fill:#ffb59c;}.cls-8{fill:#332a1a;}.cls-9{fill:#ffc3ad;}.cls-10{stroke:#e87464;stroke-linecap:round;stroke-linejoin:round;stroke-width:3.67px;}</style><clipPath id="clip-path"><path class="cls-1" d="M69.35,138.7h0A69.56,69.56,0,0,0,138.7,69.35h0A69.56,69.56,0,0,0,69.35,0h0A69.56,69.56,0,0,0,0,69.35H0A69.56,69.56,0,0,0,69.35,138.7Z"/></clipPath></defs><g id="Layer_2" data-name="Layer 2"><g id="Layer_3" data-name="Layer 3"><g id="_1" data-name="1"><path class="cls-2" d="M69.35,138.7h0A69.56,69.56,0,0,0,138.7,69.35h0A69.56,69.56,0,0,0,69.35,0h0A69.56,69.56,0,0,0,0,69.35H0A69.56,69.56,0,0,0,69.35,138.7Z"/><g class="cls-3"><rect class="cls-4" x="58.23" y="98.7" width="22.74" height="49.4"/><rect class="cls-5" x="18.72" y="126.93" width="104.03" height="43.92"/></g><circle class="cls-6" cx="26.28" cy="69.67" r="11.98"/><circle class="cls-6" cx="112.43" cy="69.67" r="11.98"/><circle class="cls-7" cx="69.53" cy="72.61" r="45.61"/><path d="M57.75,66.63a4.2,4.2,0,0,1-4.2,4.19,4.06,4.06,0,0,1-1.74-.38A4.15,4.15,0,0,1,49.61,68a3.89,3.89,0,0,1-.24-1.36,4.19,4.19,0,0,1,4.19-4.2,4.12,4.12,0,0,1,1.58.31,4.2,4.2,0,0,1,2.51,2.92A5.34,5.34,0,0,1,57.75,66.63Z"/><path d="M87.47,66.63a4.2,4.2,0,0,1-4.2,4.19,4.06,4.06,0,0,1-1.74-.38A4.18,4.18,0,0,1,79.33,68a3.89,3.89,0,0,1-.23-1.36,4.18,4.18,0,0,1,4.18-4.2,4.12,4.12,0,0,1,1.58.31,4.2,4.2,0,0,1,2.51,2.92A4.59,4.59,0,0,1,87.47,66.63Z"/><rect class="cls-8" x="82.89" y="44.28" width="4.86" height="15.41" rx="2.43" transform="translate(10.81 118.53) rotate(-73.12)"/><rect class="cls-8" x="43.68" y="49.95" width="15.41" height="4.86" rx="2.43" transform="translate(-10.3 12.65) rotate(-12.76)"/><rect class="cls-9" x="64.14" y="68.6" width="8.35" height="12.91" rx="3"/><path class="cls-8" d="M114.89,72.16c0-.38,0-.78,0-1.17,0-16.64-11.92-35-26.64-35a25.11,25.11,0,0,0-18.71,8.68A25.07,25.07,0,0,0,50.87,36C36.59,36,24.64,54,24,70c-.12-1.28.06-4.12.06-5.42,0-24.94,20.5-44.09,45.7-44.09s45.63,20.22,45.63,45.16A45.42,45.42,0,0,1,114.89,72.16Z"/><path class="cls-8" d="M107.19,43.23C100.77,46,89,49.31,80.45,49.69c-17.81.79-33.16-4.76-38.82-13.11-1.94-9.69,4.18-13.77,9.26-15.68,10.42-3.92,26.83-2.19,36,2.52C95.6,27.9,103.51,34.94,107.19,43.23Z"/><path class="cls-10" d="M91,89.51c-3.88,7.64-11.12,7-19.39,7"/></g></g></g></svg>