<svg xmlns="http://www.w3.org/2000/svg" xmlns:xlink="http://www.w3.org/1999/xlink" viewBox="0 0 138.7 167.82"><defs><style>.cls-1,.cls-8{fill:none;}.cls-2{fill:#6c88fa;}.cls-3{clip-path:url(#clip-path);}.cls-4{fill:#f09d7e;}.cls-5{fill:#ffc547;}.cls-6{fill:#e39a7f;}.cls-7{fill:#ffb59c;}.cls-8{stroke:#e87464;stroke-linecap:round;stroke-linejoin:round;stroke-width:1.98px;}.cls-9{fill:#bd5d34;}.cls-10{fill:#db6c3d;}.cls-11{fill:#ffc3ad;}.cls-12{fill:#7a4100;}</style><clipPath id="clip-path"><path class="cls-1" d="M69.35,138.7h0A69.56,69.56,0,0,0,138.7,69.35h0A69.56,69.56,0,0,0,69.35,0h0A69.56,69.56,0,0,0,0,69.35H0A69.56,69.56,0,0,0,69.35,138.7Z"/></clipPath></defs><g id="Layer_2" data-name="Layer 2"><g id="Layer_3" data-name="Layer 3"><g id="_1" data-name="1"><path class="cls-2" d="M69.35,138.7h0A69.56,69.56,0,0,0,138.7,69.35h0A69.56,69.56,0,0,0,69.35,0h0A69.56,69.56,0,0,0,0,69.35H0A69.56,69.56,0,0,0,69.35,138.7Z"/><g class="cls-3"><rect class="cls-4" x="59.9" y="98.7" width="23.88" height="49.4"/><rect class="cls-5" x="20.21" y="123.9" width="104.03" height="43.92"/></g><circle class="cls-6" cx="36.55" cy="66.76" r="10.78"/><circle class="cls-6" cx="104.13" cy="66.76" r="10.78"/><path class="cls-7" d="M70,115.67h0a35.09,35.09,0,0,1-35.1-35.1V58.9c0-19.39,15.5-36.46,34.89-36.46L71,22.32c19.39,0,34.05,17.19,34.05,36.58V80.57C104.84,100.33,89.9,115.77,70,115.67Z"/><path class="cls-8" d="M64.69,92.26H80.06a8.9,8.9,0,0,0,9-6.92"/><path class="cls-9" d="M66.81,19a53.12,53.12,0,0,1,23.75,4.3A25.47,25.47,0,0,1,105.48,47.2L105,65.4s-1-20.72-7-26.76-16.52-5.91-27.65-6c-1.27,0-2.51,0-3.72.08C66.72,28.19,66.9,23.61,66.81,19Z"/><path class="cls-9" d="M72.34,19a52.88,52.88,0,0,0-23.7,4.55A25.44,25.44,0,0,0,34,47.58l.63,18.19S35.42,45,41.3,38.94s16.46-6.09,27.59-6.25c1.27,0,2.51,0,3.72,0C72.53,28.16,72.29,23.58,72.34,19Z"/><rect class="cls-10" x="31.73" y="12.37" width="72.2" height="31.02" rx="13.81"/><rect class="cls-11" x="65.65" y="69.76" width="7.51" height="11.61" rx="2.7"/><rect class="cls-12" x="46.31" y="50.33" width="15.38" height="2.35" rx="1.15" transform="translate(-11.27 15.32) rotate(-14.64)"/><rect class="cls-12" x="78.99" y="57.27" width="15.38" height="2.35" rx="1.15" transform="translate(176.27 112.34) rotate(177.04)"/><path d="M59.39,65.73a4.21,4.21,0,0,1-4.2,4.2,4.07,4.07,0,0,1-1.74-.39,4.15,4.15,0,0,1-2.2-2.46A3.89,3.89,0,0,1,51,65.72a4.2,4.2,0,0,1,4.19-4.2,4.12,4.12,0,0,1,1.58.31,4.2,4.2,0,0,1,2.51,2.92A5.43,5.43,0,0,1,59.39,65.73Z"/><path d="M54,62.59s-3.13.74-3.75-1.86c0,0-.74,2.61,1.55,3.33C54.67,65,54,62.59,54,62.59Z"/><path d="M53.09,63.91s-3.13.75-3.75-1.86c0,0-.74,2.61,1.55,3.33C53.78,66.28,53.09,63.91,53.09,63.91Z"/><path d="M87.41,63.69s3.2.41,3.54-2.24c0,0,1,2.51-1.2,3.46C87,66.11,87.41,63.69,87.41,63.69Z"/><path d="M88.43,64.91s3.2.41,3.54-2.24c0,0,1,2.51-1.19,3.46C88,67.33,88.43,64.91,88.43,64.91Z"/><path d="M88.75,63.64H81.57a4.14,4.14,0,1,0,7.74,2,4.1,4.1,0,0,0-.11-.94A3.92,3.92,0,0,0,88.75,63.64Z"/></g></g></g></svg>