<svg xmlns="http://www.w3.org/2000/svg" xmlns:xlink="http://www.w3.org/1999/xlink" viewBox="0 0 138.7 165.84"><defs><style>.cls-1,.cls-9{fill:none;}.cls-2{fill:#40d6b3;}.cls-3{clip-path:url(#clip-path);}.cls-4{fill:#f09d7e;}.cls-5{fill:#827ef0;}.cls-6{fill:#e39a7f;}.cls-7{fill:#ffb59c;}.cls-8{fill:#784626;}.cls-9{stroke:#e87464;stroke-linecap:round;stroke-linejoin:round;stroke-width:3px;}.cls-10{fill:#736357;}.cls-11{fill:#ffc3ad;}</style><clipPath id="clip-path"><path class="cls-1" d="M69.35,138.7h0A69.56,69.56,0,0,0,138.7,69.35h0A69.56,69.56,0,0,0,69.35,0h0A69.56,69.56,0,0,0,0,69.35H0A69.56,69.56,0,0,0,69.35,138.7Z"/></clipPath></defs><g id="Layer_2" data-name="Layer 2"><g id="Layer_3" data-name="Layer 3"><g id="_1" data-name="1"><path class="cls-2" d="M69.35,138.7h0A69.56,69.56,0,0,0,138.7,69.35h0A69.56,69.56,0,0,0,69.35,0h0A69.56,69.56,0,0,0,0,69.35H0A69.56,69.56,0,0,0,69.35,138.7Z"/><g class="cls-3"><rect class="cls-4" x="59.9" y="98.7" width="23.88" height="49.4"/><rect class="cls-5" x="19.22" y="121.92" width="104.03" height="43.92"/></g><circle class="cls-6" cx="30.6" cy="70.72" r="10.78"/><circle class="cls-6" cx="108.1" cy="70.72" r="10.78"/><path class="cls-7" d="M51.7,32H87a15.4,15.4,0,0,1,15.4,15.4l5.94,49.16A15.39,15.39,0,0,1,92.94,112H45.76a15.4,15.4,0,0,1-15.4-15.4l6-49.16A15.39,15.39,0,0,1,51.7,32Z"/><path d="M86.14,67.61a4.21,4.21,0,0,1-4.2,4.2,3.93,3.93,0,0,1-1.74-.39A4.13,4.13,0,0,1,78,69a4,4,0,0,1-.24-1.37A4.2,4.2,0,0,1,82,63.4a4.12,4.12,0,0,1,1.58.31A4.2,4.2,0,0,1,86,66.64,5.32,5.32,0,0,1,86.14,67.61Z"/><path class="cls-8" d="M105,63.07c0-16.48-1.56-35.55-20.24-42C82.53,14.06,76.42,8,69.21,8c-.16,3.75-.16,4.47-.13,4.59-.32,0-12.52-.6-15.55,9.15C36.2,28.42,34,46.54,34,62.42c0,1-.13,3.34,0,4.37.52-12.86,7.6-30.21,20.78-30.21h1.58a16.34,16.34,0,0,0,26.09-.33h1.21c14.4,0,19.9,17.08,21.2,30.73A36.88,36.88,0,0,0,105,63.07Z"/><path class="cls-8" d="M106.33,79.92l-5.68,10.9L88,93.54,78.44,82.89l-10,3-8.48-3L50.76,93.57,36.5,89.83l-4.13-9.91-2,16.63A15.4,15.4,0,0,0,45.76,112H92.94a15.39,15.39,0,0,0,15.4-15.4ZM83.76,95.53,81,99.47H57l-2.16-4,6.49-7.84,7.56,2.56,8.16-2.56Z"/><path class="cls-9" d="M62.71,93.25a12.32,12.32,0,0,0,6.2,2,12.17,12.17,0,0,0,6.19-2"/><path class="cls-10" d="M59.64,62.41l-9.51-3.74a2.35,2.35,0,0,1-1.5-2.85h0a2.15,2.15,0,0,1,2.89-1.14L61,58.42a2.37,2.37,0,0,1,1.49,2.86h0A2.13,2.13,0,0,1,59.64,62.41Z"/><path d="M53,64.64l6.56,2.16a4.11,4.11,0,0,1-.09,2.14,4.14,4.14,0,0,1-3.38,2.77,3.87,3.87,0,0,1-1.71-.17,4.06,4.06,0,0,1-2.58-5.11,4.74,4.74,0,0,1,.39-.86A4,4,0,0,1,53,64.64Z"/><path class="cls-10" d="M77.56,55.88l9.12,2.62A2.17,2.17,0,0,0,89.38,57h0a2.18,2.18,0,0,0-1.5-2.7l-9.12-2.63a2.18,2.18,0,0,0-2.7,1.5h0A2.18,2.18,0,0,0,77.56,55.88Z"/><rect class="cls-11" x="64.66" y="69.76" width="7.51" height="11.61" rx="2.7"/></g></g></g></svg>