<svg xmlns="http://www.w3.org/2000/svg" xmlns:xlink="http://www.w3.org/1999/xlink" viewBox="0 0 138.7 167.82"><defs><style>.cls-1,.cls-10{fill:none;}.cls-2{fill:#29acad;}.cls-3{clip-path:url(#clip-path);}.cls-4{fill:#f09d7e;}.cls-5{fill:#eb5e5e;}.cls-6{fill:#e39a7f;}.cls-7{fill:#ffb59c;}.cls-8{fill:#7d4510;}.cls-9{fill:#ffc3ad;}.cls-10{stroke:#e87464;stroke-linecap:round;stroke-linejoin:round;stroke-width:3.27px;}</style><clipPath id="clip-path"><path class="cls-1" d="M69.35,138.7h0A69.56,69.56,0,0,0,138.7,69.35h0A69.56,69.56,0,0,0,69.35,0h0A69.56,69.56,0,0,0,0,69.35H0A69.56,69.56,0,0,0,69.35,138.7Z"/></clipPath></defs><g id="Layer_2" data-name="Layer 2"><g id="Layer_3" data-name="Layer 3"><g id="_1" data-name="1"><path class="cls-2" d="M69.35,138.7h0A69.56,69.56,0,0,0,138.7,69.35h0A69.56,69.56,0,0,0,69.35,0h0A69.56,69.56,0,0,0,0,69.35H0A69.56,69.56,0,0,0,69.35,138.7Z"/><g class="cls-3"><rect class="cls-4" x="56.22" y="98.7" width="25.32" height="49.4"/><rect class="cls-5" x="15.44" y="123.9" width="104.03" height="43.92"/></g><circle class="cls-6" cx="34.88" cy="69.44" r="10.69"/><circle class="cls-6" cx="102.83" cy="69.44" r="10.69"/><path class="cls-7" d="M104,60.35,103.94,87c-.31,19.75-24.13,27.14-35.23,27s-35-7.91-35-27.3l.08-26.62a35.11,35.11,0,0,1,70.21.26Z"/><path d="M59,66.73a3.75,3.75,0,0,1-3.75,3.74,3.66,3.66,0,0,1-1.55-.34,3.72,3.72,0,0,1-2-2.19,3.6,3.6,0,0,1-.21-1.22A3.74,3.74,0,0,1,55.26,63a3.66,3.66,0,0,1,1.41.28,3.76,3.76,0,0,1,2.24,2.61A4.21,4.21,0,0,1,59,66.73Z"/><path d="M85.73,66.73a3.73,3.73,0,0,1-7.26,1.21,3.6,3.6,0,0,1-.21-1.22A3.75,3.75,0,0,1,82,63a3.61,3.61,0,0,1,1.4.28,3.73,3.73,0,0,1,2.24,2.61A4.21,4.21,0,0,1,85.73,66.73Z"/><rect class="cls-8" x="81.43" y="48.03" width="4.34" height="13.75" rx="2.17" transform="translate(10.79 123.47) rotate(-76.58)"/><rect class="cls-8" x="47.33" y="52.73" width="13.75" height="4.33" rx="2.17" transform="translate(-10.79 13.33) rotate(-12.76)"/><rect class="cls-9" x="64.7" y="68.49" width="7.45" height="11.52" rx="2.67"/><path class="cls-10" d="M79.32,90.71a17,17,0,0,1-10.59,4,18.31,18.31,0,0,1-11.8-4.41"/><path class="cls-8" d="M33.73,26.61V67.1A17.39,17.39,0,0,0,38.39,60c1.06-3.34-2.44-20.28,12-21.16,7.46-.45,10.62,2.12,13.2,4.7,2.31,2.31,7.42,3.14,10.56,0,2.58-2.58,5.74-5.15,13.2-4.7,14.44.88,10.94,17.81,12,21.16A17.65,17.65,0,0,0,104,67.1V26.61a6,6,0,0,0-6-5.95H39.66A6,6,0,0,0,33.73,26.61Z"/></g></g></g></svg>