<svg xmlns="http://www.w3.org/2000/svg" xmlns:xlink="http://www.w3.org/1999/xlink" viewBox="0 0 138.7 167.82"><defs><style>.cls-1,.cls-8{fill:none;}.cls-2{fill:#ffe96e;}.cls-3{clip-path:url(#clip-path);}.cls-4{fill:#f09d7e;}.cls-5{fill:#f07e7e;}.cls-6{fill:#e39a7f;}.cls-7{fill:#ffb59c;}.cls-8{stroke:#e87464;stroke-linecap:round;stroke-linejoin:round;stroke-width:3px;}.cls-9{fill:#54483f;}.cls-10{fill:#736357;}.cls-11{fill:#ffc3ad;}</style><clipPath id="clip-path"><path class="cls-1" d="M69.35,138.7h0A69.56,69.56,0,0,0,138.7,69.35h0A69.56,69.56,0,0,0,69.35,0h0A69.56,69.56,0,0,0,0,69.35H0A69.56,69.56,0,0,0,69.35,138.7Z"/></clipPath></defs><g id="Layer_2" data-name="Layer 2"><g id="Layer_3" data-name="Layer 3"><g id="_1" data-name="1"><path class="cls-2" d="M69.35,138.7h0A69.56,69.56,0,0,0,138.7,69.35h0A69.56,69.56,0,0,0,69.35,0h0A69.56,69.56,0,0,0,0,69.35H0A69.56,69.56,0,0,0,69.35,138.7Z"/><g class="cls-3"><rect class="cls-4" x="59.9" y="98.7" width="23.88" height="49.4"/><rect class="cls-5" x="20.21" y="123.9" width="104.03" height="43.92"/></g><circle class="cls-6" cx="36.55" cy="66.76" r="10.78"/><circle class="cls-6" cx="104.13" cy="66.76" r="10.78"/><path class="cls-7" d="M70,115.67h0a35.09,35.09,0,0,1-35.1-35.1V58.9c0-19.39,15.5-36.46,34.89-36.46L71,22.32c19.39,0,34.05,17.19,34.05,36.58V80.57C104.84,100.33,89.9,115.77,70,115.67Z"/><path class="cls-8" d="M64.69,92.26H80.06a8.9,8.9,0,0,0,9-6.92"/><path class="cls-9" d="M66.81,19c27.93-.92,39,16.14,39,16.14L105,65.4s-1-20.72-7-26.76-16.52-5.91-27.65-6c-1.27,0-2.51,0-3.72.08C66.72,28.19,66.9,23.61,66.81,19Z"/><path class="cls-9" d="M72.34,19C44.4,18.38,33.55,35.56,33.55,35.56L34.6,65.77S35.42,45,41.3,38.94s16.46-6.09,27.59-6.25c1.27,0,2.51,0,3.72,0C72.53,28.16,72.29,23.58,72.34,19Z"/><path d="M58.05,65.06l-6,2.41a3.78,3.78,0,0,0,3.53,4.36,3.53,3.53,0,0,0,1.59-.26,3.79,3.79,0,0,0,2.09-4.91,4.94,4.94,0,0,0-.41-.79A3.71,3.71,0,0,0,58.05,65.06Z"/><path class="cls-10" d="M58.87,60.52l-9.31,3.33a2.28,2.28,0,0,1-2.9-1.06h0A2,2,0,0,1,48,60.21l9.31-3.33a2.29,2.29,0,0,1,2.91,1.06h0A2,2,0,0,1,58.87,60.52Z"/><path d="M81.19,65.06l6,2.41a3.71,3.71,0,0,1-.21,2,3.51,3.51,0,0,1-.66,1.06,3.72,3.72,0,0,1-2.66,1.31,3.49,3.49,0,0,1-1.58-.26A3.77,3.77,0,0,1,80,66.66a4.24,4.24,0,0,1,.41-.79A3.71,3.71,0,0,1,81.19,65.06Z"/><path class="cls-10" d="M80.37,60.52l9.31,3.33a2.28,2.28,0,0,0,2.9-1.06h0a2,2,0,0,0-1.39-2.58l-9.31-3.33A2.28,2.28,0,0,0,79,57.94h0A2,2,0,0,0,80.37,60.52Z"/><rect class="cls-11" x="65.65" y="69.76" width="7.51" height="11.61" rx="2.7"/></g></g></g></svg>