<svg xmlns="http://www.w3.org/2000/svg" xmlns:xlink="http://www.w3.org/1999/xlink" viewBox="0 0 138.7 165.84"><defs><style>.cls-1,.cls-8{fill:none;}.cls-2{fill:#7f6de8;}.cls-3{clip-path:url(#clip-path);}.cls-4{fill:#f09d7e;}.cls-5{fill:#f07ea4;}.cls-6{fill:#e39a7f;}.cls-7{fill:#ffb59c;}.cls-8{stroke:#e87464;stroke-linecap:round;stroke-linejoin:round;stroke-width:3px;}.cls-9{fill:#54483f;}.cls-10{fill:#736357;}.cls-11{fill:#ffc3ad;}</style><clipPath id="clip-path"><path class="cls-1" d="M69.35,138.7h0A69.56,69.56,0,0,0,138.7,69.35h0A69.56,69.56,0,0,0,69.35,0h0A69.56,69.56,0,0,0,0,69.35H0A69.56,69.56,0,0,0,69.35,138.7Z"/></clipPath></defs><g id="Layer_2" data-name="Layer 2"><g id="Layer_3" data-name="Layer 3"><g id="_1" data-name="1"><path class="cls-2" d="M69.35,138.7h0A69.56,69.56,0,0,0,138.7,69.35h0A69.56,69.56,0,0,0,69.35,0h0A69.56,69.56,0,0,0,0,69.35H0A69.56,69.56,0,0,0,69.35,138.7Z"/><g class="cls-3"><rect class="cls-4" x="59.9" y="98.7" width="23.88" height="49.4"/><rect class="cls-5" x="19.22" y="121.92" width="104.03" height="43.92"/></g><circle class="cls-6" cx="30.6" cy="70.72" r="10.78"/><circle class="cls-6" cx="108.1" cy="70.72" r="10.78"/><rect class="cls-7" x="30.36" y="33.97" width="77.98" height="77.98" rx="15.4"/><path class="cls-8" d="M62.71,92.26H78.08a8.89,8.89,0,0,0,9-6.92"/><path class="cls-9" d="M66.29,23c30.92-.78,43,16.34,43,16.34l-1,30.21s-1-20.71-7.58-26.78-18.26-6-30.57-6.11c-1.41,0-2.79,0-4.12.06C66.14,32.12,66.37,27.54,66.29,23Z"/><path class="cls-9" d="M72.41,23c-30.92-.78-43,16.34-43,16.34l1,30.21s1-20.71,7.59-26.78,18.25-6,30.57-6.11c1.4,0,2.78,0,4.11.06C72.58,32.12,72.34,27.54,72.41,23Z"/><path class="cls-10" d="M83.29,41.83H61.42c-11.2,0-15.8-14.71-6.39-20.78a13.62,13.62,0,0,1,7.33-2.41s25.12-.23,30.86-.23a14.24,14.24,0,0,0,9.35-3.55v7.68A19.29,19.29,0,0,1,83.29,41.83Z"/><path d="M59,67.07l-6.18-1.81A3.72,3.72,0,0,0,51.79,67a3.48,3.48,0,0,0-.14,1.24,3.74,3.74,0,0,0,1.28,2.67,3.7,3.7,0,0,0,1.4.78A3.79,3.79,0,0,0,59,69.08a4.79,4.79,0,0,0,.16-.87A3.64,3.64,0,0,0,59,67.07Z"/><path class="cls-10" d="M55.08,52.13h0a2.18,2.18,0,0,1,2.18,2.18V63.8A2.19,2.19,0,0,1,55.08,66h0A2.18,2.18,0,0,1,52.9,63.8V54.31a2.19,2.19,0,0,1,2.19-2.19Z" transform="translate(-15.05 99.1) rotate(-76.72)"/><path d="M78.76,67.07l6.18-1.81A3.72,3.72,0,0,1,86,67a3.48,3.48,0,0,1,.14,1.24,3.74,3.74,0,0,1-1.28,2.67,3.7,3.7,0,0,1-1.4.78,3.79,3.79,0,0,1-4.69-2.57,4.79,4.79,0,0,1-.16-.87A3.64,3.64,0,0,1,78.76,67.07Z"/><path class="cls-10" d="M78,56.87h9.49a2.18,2.18,0,0,1,2.18,2.18v0a2.19,2.19,0,0,1-2.19,2.19H78a2.18,2.18,0,0,1-2.18-2.18v0A2.19,2.19,0,0,1,78,56.87Z" transform="matrix(0.97, -0.23, 0.23, 0.97, -11.35, 20.58)"/><rect class="cls-11" x="64.66" y="69.76" width="7.51" height="11.61" rx="2.7"/></g></g></g></svg>