<svg xmlns="http://www.w3.org/2000/svg" xmlns:xlink="http://www.w3.org/1999/xlink" viewBox="0 0 138.7 170.86"><defs><style>.cls-1{fill:none;}.cls-2{fill:#ffef3e;}.cls-3{clip-path:url(#clip-path);}.cls-4{fill:#f09d7e;}.cls-5{fill:#f07e7e;}.cls-6{fill:#7a4100;}.cls-7{fill:#e39a7f;}.cls-8{fill:#ffb59c;}.cls-9{fill:#ffc3ad;}.cls-10{fill:#fcfcfc;stroke:#e87464;stroke-linecap:round;stroke-linejoin:round;stroke-width:1.98px;}</style><clipPath id="clip-path"><path class="cls-1" d="M69.35,138.7h0A69.56,69.56,0,0,0,138.7,69.35h0A69.56,69.56,0,0,0,69.35,0h0A69.56,69.56,0,0,0,0,69.35H0A69.56,69.56,0,0,0,69.35,138.7Z"/></clipPath></defs><g id="Layer_2" data-name="Layer 2"><g id="Layer_3" data-name="Layer 3"><g id="_1" data-name="1"><path class="cls-2" d="M69.35,138.7h0A69.56,69.56,0,0,0,138.7,69.35h0A69.56,69.56,0,0,0,69.35,0h0A69.56,69.56,0,0,0,0,69.35H0A69.56,69.56,0,0,0,69.35,138.7Z"/><g class="cls-3"><rect class="cls-4" x="58.23" y="98.7" width="22.74" height="49.4"/><rect class="cls-5" x="18.72" y="126.93" width="104.03" height="43.92"/></g><circle class="cls-6" cx="68.92" cy="26.32" r="18.86"/><circle class="cls-7" cx="26.28" cy="69.67" r="11.98"/><circle class="cls-7" cx="112.43" cy="69.67" r="11.98"/><circle class="cls-8" cx="69.53" cy="72.61" r="45.61"/><rect class="cls-6" x="44.67" y="51.23" width="15.38" height="2.35" rx="1.15" transform="matrix(0.97, -0.25, 0.25, 0.97, -11.55, 14.94)"/><rect class="cls-6" x="77.35" y="58.17" width="15.38" height="2.35" rx="1.15" transform="translate(173.04 114.22) rotate(177.04)"/><path d="M57.75,66.63a4.2,4.2,0,0,1-4.2,4.19,4.06,4.06,0,0,1-1.74-.38A4.15,4.15,0,0,1,49.61,68a3.89,3.89,0,0,1-.24-1.36,4.19,4.19,0,0,1,4.19-4.2,4.12,4.12,0,0,1,1.58.31,4.2,4.2,0,0,1,2.51,2.92A5.34,5.34,0,0,1,57.75,66.63Z"/><path d="M52.34,63.49s-3.13.74-3.75-1.86c0,0-.74,2.61,1.55,3.32C53,65.86,52.34,63.49,52.34,63.49Z"/><path d="M51.46,64.81s-3.14.74-3.76-1.86c0,0-.74,2.61,1.55,3.33C52.14,67.18,51.46,64.81,51.46,64.81Z"/><path d="M85.77,64.59s3.2.4,3.54-2.25c0,0,1,2.52-1.19,3.47C85.34,67,85.77,64.59,85.77,64.59Z"/><path d="M86.79,65.81s3.2.41,3.54-2.25c0,0,1,2.52-1.19,3.47C86.36,68.23,86.79,65.81,86.79,65.81Z"/><path d="M87.11,64.54H79.93a4.14,4.14,0,1,0,7.63,1.1A3.8,3.8,0,0,0,87.11,64.54Z"/><rect class="cls-9" x="64.14" y="68.6" width="8.35" height="12.91" rx="3"/><path class="cls-6" d="M114.89,72.16c0-.38,0-.78,0-1.17,0-16.64-11.92-35-26.64-35C81,36,76.78,39.68,69.56,39.67S58.14,36,50.87,36C36.59,36,24.64,54,24,70c-.12-1.28.06-4.12.06-5.42,0-24.94,20.5-44.09,45.7-44.09s45.63,20.22,45.63,45.16A45.42,45.42,0,0,1,114.89,72.16Z"/><path class="cls-10" d="M89,92.48c-3.87,7.64-11.11,14-19.38,14-8.69,0-16.22-5.66-19.93-14Z"/></g></g></g></svg>